<svg width="1250" height="177" viewBox="0 0 1250 177" fill="none" xmlns="http://www.w3.org/2000/svg">
<path d="M66 157.719L122 135.719H1173L66 157.719Z" fill="url(#paint0_linear_1348_907)"/>
<g filter="url(#filter0_d_1348_907)">
<path d="M64.5051 98.7188L77.0688 65.9697L72.4244 60.2536H128.812L118.511 87.1077L99.219 98.7188H64.5051ZM108.984 69.8401H91.7165L84.2736 89.1918H92.967L104.28 82.0465L108.984 69.8401ZM187.833 60.2536L178.186 85.381H169.314L173.006 98.7188H156.81L152.88 85.381H144.782L139.662 98.7188H123.525L136.089 65.9697L131.445 60.2536H187.833ZM150.737 69.8401L148.415 75.854H165.682L168.005 69.8401H150.737ZM209.699 69.8401L207.853 74.7227H241.257L237.565 84.2496H204.161L202.256 89.1918H235.66L232.028 98.7188H182.488L195.051 65.9697L190.407 60.2536H246.795L243.103 69.8401H209.699ZM305.815 60.2536L291.048 98.7188H274.912L279.616 86.3932H262.348L257.644 98.7188H241.508L254.072 65.9697L249.427 60.2536H305.815ZM268.719 69.8401L266.04 76.8662H283.308L285.987 69.8401H268.719ZM313.034 65.9697L308.389 60.2536H384.903L370.136 98.7188H354L365.134 69.7805H354.476L343.341 98.7188H327.205L338.34 69.7805H327.741L316.606 98.7188H300.47L313.034 65.9697ZM419.451 69.8401L412.067 60.2536H465.895L462.203 69.8401H446.365L435.289 98.7188H419.153L430.228 69.8401H419.451ZM487.821 69.8401L485.975 74.7227H519.379L515.688 84.2496H482.284L480.378 89.1918H513.782L510.15 98.7188H460.61L473.174 65.9697L468.529 60.2536H524.917L521.225 69.8401H487.821ZM583.937 60.2536L569.17 98.7188H553.034L557.738 86.3932H540.47L535.766 98.7188H519.63L532.194 65.9697L527.549 60.2536H583.937ZM546.842 69.8401L544.162 76.8662H561.43L564.109 69.8401H546.842ZM591.156 65.9697L586.512 60.2536H663.025L648.258 98.7188H632.122L643.257 69.7805H632.598L621.464 98.7188H605.327L616.462 69.7805H605.863L594.729 98.7188H578.592L591.156 65.9697ZM682.27 98.7188L694.834 65.9697L690.19 60.2536H746.577L736.276 87.1077L716.984 98.7188H682.27ZM726.749 69.8401H709.482L702.039 89.1918H710.732L722.046 82.0465L726.749 69.8401ZM768.502 69.8401L766.656 74.7227H800.06L796.369 84.2496H762.965L761.059 89.1918H794.463L790.831 98.7188H741.291L753.854 65.9697L749.21 60.2536H805.598L801.906 69.8401H768.502ZM849.792 98.7188H800.311L803.943 89.1918H837.288L839.193 84.2496H805.849L812.875 65.9697L808.23 60.2536H864.559L860.867 69.8401H827.522L825.677 74.7227H859.021L849.792 98.7188ZM871.837 65.9697L867.192 60.2536H890.176L875.409 98.7188H859.273L871.837 65.9697ZM934.339 98.7188H884.858L897.422 65.9697L892.778 60.2536H949.106L945.414 69.8401H912.07L904.627 89.1918H921.835L923.74 84.2496H915.642L919.334 74.7227H943.568L934.339 98.7188ZM956.384 65.9697L951.74 60.2536H974.485L985.382 77.4617L991.991 60.2536H1008.13L993.361 98.7188H977.463L966.566 81.5106L959.957 98.7188H943.82L956.384 65.9697ZM1030.05 69.8401L1028.21 74.7227H1061.61L1057.92 84.2496H1024.51L1022.61 89.1918H1056.01L1052.38 98.7188H1002.84L1015.4 65.9697L1010.76 60.2536H1067.15L1063.46 69.8401H1030.05ZM1126.17 60.2536L1116.52 85.381H1107.65L1111.34 98.7188H1095.15L1091.22 85.381H1083.12L1078 98.7188H1061.86L1074.42 65.9697L1069.78 60.2536H1126.17ZM1089.07 69.8401L1086.75 75.854H1104.02L1106.34 69.8401H1089.07ZM1170.3 98.7188H1120.82L1124.46 89.1918H1157.8L1159.71 84.2496H1126.36L1133.39 65.9697L1128.74 60.2536H1185.07L1181.38 69.8401H1148.03L1146.19 74.7227H1179.53L1170.3 98.7188Z" fill="url(#paint1_linear_1348_907)"/>
</g>
<defs>
<filter id="filter0_d_1348_907" x="0.503906" y="0.253906" width="1248.57" height="166.465" filterUnits="userSpaceOnUse" color-interpolation-filters="sRGB">
<feFlood flood-opacity="0" result="BackgroundImageFix"/>
<feColorMatrix in="SourceAlpha" type="matrix" values="0 0 0 0 0 0 0 0 0 0 0 0 0 0 0 0 0 0 127 0" result="hardAlpha"/>
<feOffset dy="4"/>
<feGaussianBlur stdDeviation="32"/>
<feComposite in2="hardAlpha" operator="out"/>
<feColorMatrix type="matrix" values="0 0 0 0 0.336111 0 0 0 0 0.00416667 0 0 0 0 1 0 0 0 1 0"/>
<feBlend mode="normal" in2="BackgroundImageFix" result="effect1_dropShadow_1348_907"/>
<feBlend mode="normal" in="SourceGraphic" in2="effect1_dropShadow_1348_907" result="shape"/>
</filter>
<linearGradient id="paint0_linear_1348_907" x1="66" y1="146.719" x2="1173" y2="146.719" gradientUnits="userSpaceOnUse">
<stop stop-color="#8C7F9C"/>
<stop offset="1" stop-color="#4595F0"/>
</linearGradient>
<linearGradient id="paint1_linear_1348_907" x1="57" y1="79.7188" x2="1173" y2="79.7188" gradientUnits="userSpaceOnUse">
<stop stop-color="#00329D"/>
<stop offset="1" stop-color="#8B4F50"/>
</linearGradient>
</defs>
</svg>
