<svg width="338" height="114" viewBox="0 0 338 114" fill="none" xmlns="http://www.w3.org/2000/svg">
<g filter="url(#filter0_d_1349_225)">
<path d="M30.511 46L36.3263 30.8416L34.1765 28.1958H60.2766L55.5086 40.6257L46.5789 46H30.511ZM51.0988 32.633H43.1062L39.6611 41.5903H43.685L48.9215 38.283L51.0988 32.633ZM87.5951 28.1958L83.1302 39.8264H79.0237L80.7324 46H73.2359L71.4169 39.8264H67.6687L65.2984 46H57.8295L63.6448 30.8416L61.495 28.1958H87.5951ZM70.4247 32.633L69.3499 35.4167H77.3425L78.4173 32.633H70.4247ZM97.7163 32.633L96.8619 34.893H112.324L110.615 39.3027H95.1532L94.2712 41.5903H109.733L108.052 46H85.1211L90.9364 30.8416L88.7866 28.1958H114.887L113.178 32.633H97.7163ZM142.205 28.1958L135.37 46H127.901L130.078 40.2949H122.086L119.909 46H112.44L118.255 30.8416L116.105 28.1958H142.205ZM125.035 32.633L123.795 35.8852H131.787L133.027 32.633H125.035ZM145.546 30.8416L143.397 28.1958H178.812L171.977 46H164.508L169.662 32.6055H164.729L159.575 46H152.106L157.26 32.6055H152.354L147.2 46H139.731L145.546 30.8416ZM194.803 32.633L191.386 28.1958H216.301L214.592 32.633H207.261L202.134 46H194.666L199.792 32.633H194.803ZM226.45 32.633L225.595 34.893H241.057L239.348 39.3027H223.887L223.005 41.5903H238.466L236.785 46H213.854L219.67 30.8416L217.52 28.1958H243.62L241.911 32.633H226.45ZM270.939 28.1958L264.103 46H256.635L258.812 40.2949H250.819L248.642 46H241.173L246.988 30.8416L244.839 28.1958H270.939ZM253.768 32.633L252.528 35.8852H260.521L261.761 32.633H253.768ZM274.28 30.8416L272.13 28.1958H307.546L300.711 46H293.242L298.396 32.6055H293.462L288.308 46H280.839L285.993 32.6055H281.087L275.934 46H268.465L274.28 30.8416ZM52.6618 75L58.4772 59.8416L56.3274 57.1958H82.4274L77.6594 69.6257L68.7297 75H52.6618ZM73.2497 61.633H65.2571L61.812 70.5903H65.8359L71.0724 67.283L73.2497 61.633ZM92.5756 61.633L91.7212 63.893H107.183L105.474 68.3027H90.0124L89.1305 70.5903H104.592L102.911 75H79.9803L85.7957 59.8416L83.6459 57.1958H109.746L108.037 61.633H92.5756ZM130.202 75H107.299L108.98 70.5903H124.414L125.296 68.3027H109.862L113.114 59.8416L110.964 57.1958H137.037L135.328 61.633H119.894L119.04 63.893H134.474L130.202 75ZM140.406 59.8416L138.256 57.1958H148.894L142.059 75H134.59L140.406 59.8416ZM169.336 75H146.433L152.248 59.8416L150.099 57.1958H176.171L174.462 61.633H159.028L155.583 70.5903H163.548L164.43 68.3027H160.682L162.391 63.893H173.608L169.336 75ZM179.54 59.8416L177.39 57.1958H187.918L192.962 65.1608L196.021 57.1958H203.49L196.655 75H189.296L184.253 67.0349L181.193 75H173.725L179.54 59.8416ZM213.638 61.633L212.784 63.893H228.245L226.537 68.3027H211.075L210.193 70.5903H225.655L223.974 75H201.043L206.858 59.8416L204.709 57.1958H230.809L229.1 61.633H213.638ZM258.127 57.1958L253.662 68.8264H249.556L251.265 75H243.768L241.949 68.8264H238.201L235.831 75H228.362L234.177 59.8416L232.027 57.1958H258.127ZM240.957 61.633L239.882 64.4167H247.875L248.949 61.633H240.957ZM278.556 75H255.653L257.334 70.5903H272.768L273.65 68.3027H258.216L261.468 59.8416L259.319 57.1958H285.391L283.682 61.633H268.248L267.394 63.893H282.828L278.556 75Z" fill="url(#paint0_linear_1349_225)"/>
</g>
<path d="M42.7695 106.482L55.6828 96.2988H298.037L42.7695 106.482Z" fill="url(#paint1_linear_1349_225)"/>
<defs>
<filter id="filter0_d_1349_225" x="0.888281" y="0.423339" width="336.282" height="106.052" filterUnits="userSpaceOnUse" color-interpolation-filters="sRGB">
<feFlood flood-opacity="0" result="BackgroundImageFix"/>
<feColorMatrix in="SourceAlpha" type="matrix" values="0 0 0 0 0 0 0 0 0 0 0 0 0 0 0 0 0 0 127 0" result="hardAlpha"/>
<feOffset dy="1.85146"/>
<feGaussianBlur stdDeviation="14.8117"/>
<feComposite in2="hardAlpha" operator="out"/>
<feColorMatrix type="matrix" values="0 0 0 0 0.336111 0 0 0 0 0.00416667 0 0 0 0 1 0 0 0 1 0"/>
<feBlend mode="normal" in2="BackgroundImageFix" result="effect1_dropShadow_1349_225"/>
<feBlend mode="normal" in="SourceGraphic" in2="effect1_dropShadow_1349_225" result="shape"/>
</filter>
<linearGradient id="paint0_linear_1349_225" x1="16" y1="52" x2="312.992" y2="52" gradientUnits="userSpaceOnUse">
<stop stop-color="#00329D"/>
<stop offset="1" stop-color="#8B4F50"/>
</linearGradient>
<linearGradient id="paint1_linear_1349_225" x1="42.7695" y1="101.39" x2="298.037" y2="101.39" gradientUnits="userSpaceOnUse">
<stop stop-color="#8C7F9C"/>
<stop offset="1" stop-color="#4595F0"/>
</linearGradient>
</defs>
</svg>
