<svg width="513" height="25" viewBox="0 0 513 25" fill="none" xmlns="http://www.w3.org/2000/svg">
<path d="M0.26422 24V0.854639H4.18168V24H0.26422ZM8.72276 24V0.854639H12.748L20.0798 15.8416L27.3756 0.854639H31.4009V24H27.5194V7.21602L21.2658 20.0107H18.8938L12.6043 7.21602V24H8.72276ZM35.2406 24L44.0818 0.854639H48.4665L57.2359 24H53.2106L50.9104 18.034H41.602L39.3018 24H35.2406ZM42.2129 15.015H50.2635L46.2382 4.4127L42.2129 15.015ZM69.905 24.3594C66.0953 24.3594 63.2201 23.3291 61.2794 21.2686C59.3626 19.208 58.4042 16.4167 58.4042 12.8945C58.4042 10.3548 58.8235 8.16244 59.6621 6.31752C60.5007 4.44864 61.7706 3.01104 63.4717 2.00472C65.1968 0.998399 67.3772 0.495239 70.0128 0.495239C71.3785 0.495239 72.6125 0.59108 73.7146 0.78276C74.8407 0.950479 75.895 1.20206 76.8773 1.5375V4.91586C74.9126 4.19706 72.7323 3.83766 70.3363 3.83766C67.3892 3.83766 65.3166 4.61636 64.1186 6.17376C62.9446 7.73116 62.3576 9.97142 62.3576 12.8945C62.3576 15.5541 62.9805 17.5787 64.2265 18.9684C65.4724 20.3581 67.4012 21.0529 70.0128 21.0529C72.0734 21.0529 73.7386 20.8133 75.0085 20.3341V13.8649H69.2221V11.3132H78.3509V22.4546C77.6081 22.9338 76.5419 23.377 75.1522 23.7844C73.7865 24.1677 72.0374 24.3594 69.905 24.3594ZM82.147 24V0.854639H86.0645V24H82.147ZM90.6056 24V0.854639H94.0558L106.132 17.8902V0.854639H110.013V24H106.563L94.523 7.00038V24H90.6056ZM114.577 24V0.854639H130.714V3.90954H118.495V10.9178H129.385V13.9368H118.495V20.981H130.714V24H114.577ZM142.62 24V0.854639H152.001C155.427 0.854639 157.967 1.76512 159.62 3.58608C161.273 5.38308 162.1 8.37808 162.1 12.5711C162.1 16.5245 161.285 19.4236 159.656 21.2686C158.027 23.0895 155.475 24 152.001 24H142.62ZM146.538 20.981H151.39C152.899 20.981 154.157 20.7654 155.163 20.3341C156.17 19.8789 156.924 19.0403 157.428 17.8183C157.931 16.5964 158.182 14.8473 158.182 12.5711C158.182 10.2949 157.955 8.53382 157.499 7.2879C157.044 6.04198 156.313 5.16744 155.307 4.66428C154.325 4.16112 153.019 3.90954 151.39 3.90954H146.538V20.981ZM165.96 24V0.854639H176.598C179.186 0.854639 181.067 1.52552 182.241 2.86728C183.439 4.18508 184.038 5.98208 184.038 8.25828C184.038 9.88756 183.631 11.2772 182.816 12.4273C182.001 13.5774 180.827 14.3801 179.294 14.8353C179.725 15.1468 180.061 15.4822 180.3 15.8416C180.54 16.201 180.78 16.6802 181.019 17.2792L183.93 24H179.905L177.066 17.5308C176.802 16.9078 176.479 16.4646 176.095 16.201C175.736 15.9375 175.113 15.8057 174.226 15.8057H169.878V24H165.96ZM169.878 12.643H175.556C176.97 12.643 178.084 12.2955 178.899 11.6007C179.713 10.9059 180.121 9.79172 180.121 8.25828C180.121 5.35912 178.719 3.90954 175.916 3.90954H169.878V12.643ZM185.599 24L194.44 0.854639H198.825L207.594 24H203.569L201.269 18.034H191.96L189.66 24H185.599ZM192.571 15.015H200.622L196.597 4.4127L192.571 15.015ZM219.716 24.3594C216.529 24.3594 214.049 23.5927 212.276 22.0592C210.527 20.5258 209.653 18.3095 209.653 15.4103V0.854639H213.57V15.2666C213.57 17.2073 214.097 18.6569 215.151 19.6153C216.23 20.5737 217.751 21.0529 219.716 21.0529C221.657 21.0529 223.154 20.5737 224.208 19.6153C225.287 18.6569 225.826 17.2073 225.826 15.2666V0.854639H229.707V15.4103C229.707 18.3095 228.833 20.5258 227.084 22.0592C225.334 23.5927 222.879 24.3594 219.716 24.3594ZM244.832 24.3594C241.022 24.3594 238.147 23.3291 236.206 21.2686C234.289 19.208 233.331 16.4167 233.331 12.8945C233.331 10.3548 233.75 8.16244 234.589 6.31752C235.427 4.44864 236.697 3.01104 238.398 2.00472C240.124 0.998399 242.304 0.495239 244.94 0.495239C246.305 0.495239 247.539 0.59108 248.641 0.78276C249.767 0.950479 250.822 1.20206 251.804 1.5375V4.91586C249.839 4.19706 247.659 3.83766 245.263 3.83766C242.316 3.83766 240.243 4.61636 239.045 6.17376C237.871 7.73116 237.284 9.97142 237.284 12.8945C237.284 15.5541 237.907 17.5787 239.153 18.9684C240.399 20.3581 242.328 21.0529 244.94 21.0529C247 21.0529 248.665 20.8133 249.935 20.3341V13.8649H244.149V11.3132H253.278V22.4546C252.535 22.9338 251.469 23.377 250.079 23.7844C248.713 24.1677 246.964 24.3594 244.832 24.3594ZM257.074 24V0.854639H260.991V10.9178H272.133V0.854639H276.05V24H272.133V13.9368H260.991V24H257.074ZM286.591 24V3.90954H279.188V0.854639H297.876V3.90954H290.509V24H286.591ZM301.016 24V0.854639H304.933V24H301.016ZM309.475 24V0.854639H312.925L325.001 17.8902V0.854639H328.882V24H325.432L313.392 7.00038V24H309.475ZM344.228 24.3594C340.419 24.3594 337.543 23.3291 335.603 21.2686C333.686 19.208 332.727 16.4167 332.727 12.8945C332.727 10.3548 333.147 8.16244 333.985 6.31752C334.824 4.44864 336.094 3.01104 337.795 2.00472C339.52 0.998399 341.7 0.495239 344.336 0.495239C345.702 0.495239 346.936 0.59108 348.038 0.78276C349.164 0.950479 350.218 1.20206 351.201 1.5375V4.91586C349.236 4.19706 347.056 3.83766 344.66 3.83766C341.712 3.83766 339.64 4.61636 338.442 6.17376C337.268 7.73116 336.681 9.97142 336.681 12.8945C336.681 15.5541 337.304 17.5787 338.55 18.9684C339.796 20.3581 341.724 21.0529 344.336 21.0529C346.397 21.0529 348.062 20.8133 349.332 20.3341V13.8649H343.545V11.3132H352.674V22.4546C351.931 22.9338 350.865 23.377 349.475 23.7844C348.11 24.1677 346.361 24.3594 344.228 24.3594ZM371.762 24.3594C368.767 24.3594 366.359 23.976 364.538 23.2093V19.7591C365.568 20.1424 366.67 20.4539 367.844 20.6935C369.042 20.9331 370.228 21.0529 371.402 21.0529C373.247 21.0529 374.625 20.8373 375.535 20.406C376.47 19.9747 376.937 19.1122 376.937 17.8183C376.937 17.0276 376.745 16.3927 376.362 15.9135C375.979 15.4343 375.344 15.027 374.457 14.6915C373.571 14.3321 372.349 13.9608 370.791 13.5774C368.299 12.9305 366.55 12.1158 365.544 11.1335C364.538 10.1272 364.035 8.74946 364.035 7.00038C364.035 4.96378 364.777 3.37044 366.263 2.22036C367.748 1.07028 369.965 0.495239 372.912 0.495239C374.253 0.495239 375.511 0.59108 376.685 0.78276C377.883 0.97444 378.818 1.19008 379.489 1.42968V4.87992C377.668 4.18508 375.655 3.83766 373.451 3.83766C371.726 3.83766 370.384 4.06528 369.426 4.52052C368.467 4.97576 367.988 5.80238 367.988 7.00038C367.988 7.69522 368.156 8.25828 368.491 8.68956C368.827 9.12084 369.402 9.49222 370.216 9.8037C371.055 10.1152 372.205 10.4626 373.666 10.846C375.559 11.3252 377.021 11.9002 378.051 12.5711C379.105 13.218 379.836 13.9847 380.243 14.8712C380.675 15.7338 380.89 16.7162 380.89 17.8183C380.89 19.8549 380.136 21.4602 378.626 22.6343C377.117 23.7844 374.829 24.3594 371.762 24.3594ZM384.689 24V0.854639H400.826V3.90954H388.606V10.9178H399.496V13.9368H388.606V20.981H400.826V24H384.689ZM404.449 24V0.854639H415.087C417.675 0.854639 419.556 1.52552 420.73 2.86728C421.928 4.18508 422.527 5.98208 422.527 8.25828C422.527 9.88756 422.119 11.2772 421.305 12.4273C420.49 13.5774 419.316 14.3801 417.783 14.8353C418.214 15.1468 418.549 15.4822 418.789 15.8416C419.028 16.201 419.268 16.6802 419.508 17.2792L422.419 24H418.394L415.554 17.5308C415.291 16.9078 414.967 16.4646 414.584 16.201C414.225 15.9375 413.602 15.8057 412.715 15.8057H408.366V24H404.449ZM408.366 12.643H414.045C415.458 12.643 416.573 12.2955 417.387 11.6007C418.202 10.9059 418.609 9.79172 418.609 8.25828C418.609 5.35912 417.208 3.90954 414.404 3.90954H408.366V12.643ZM432.192 24L423.35 0.854639H427.412L434.348 19.795L441.284 0.854639H445.346L436.576 24H432.192ZM458.613 24.3594C454.804 24.3594 451.916 23.3171 449.952 21.2326C448.011 19.1481 447.041 16.3328 447.041 12.7867C447.041 10.247 447.448 8.0666 448.262 6.24564C449.101 4.40072 450.371 2.98708 452.072 2.00472C453.773 0.998399 455.942 0.495239 458.577 0.495239C459.919 0.495239 461.141 0.603059 462.243 0.818699C463.369 1.01038 464.412 1.27394 465.37 1.60938V5.02368C464.412 4.64032 463.381 4.3528 462.279 4.16112C461.201 3.94548 460.063 3.83766 458.865 3.83766C455.99 3.83766 453.953 4.60438 452.755 6.13782C451.581 7.67126 450.994 9.88756 450.994 12.7867C450.994 15.4942 451.641 17.5548 452.935 18.9684C454.229 20.3581 456.229 21.0529 458.937 21.0529C460.039 21.0529 461.141 20.9691 462.243 20.8013C463.369 20.6097 464.424 20.3221 465.406 19.9388V23.389C464.447 23.7005 463.405 23.9401 462.279 24.1078C461.177 24.2755 459.955 24.3594 458.613 24.3594ZM469.204 24V0.854639H473.121V24H469.204ZM477.663 24V0.854639H493.8V3.90954H481.58V10.9178H492.47V13.9368H481.58V20.981H493.8V24H477.663ZM503.729 24.3594C500.734 24.3594 498.326 23.976 496.505 23.2093V19.7591C497.535 20.1424 498.637 20.4539 499.811 20.6935C501.009 20.9331 502.195 21.0529 503.369 21.0529C505.214 21.0529 506.592 20.8373 507.503 20.406C508.437 19.9747 508.904 19.1122 508.904 17.8183C508.904 17.0276 508.713 16.3927 508.329 15.9135C507.946 15.4343 507.311 15.027 506.424 14.6915C505.538 14.3321 504.316 13.9608 502.758 13.5774C500.267 12.9305 498.518 12.1158 497.511 11.1335C496.505 10.1272 496.002 8.74946 496.002 7.00038C496.002 4.96378 496.745 3.37044 498.23 2.22036C499.716 1.07028 501.932 0.495239 504.879 0.495239C506.221 0.495239 507.479 0.59108 508.653 0.78276C509.851 0.97444 510.785 1.19008 511.456 1.42968V4.87992C509.635 4.18508 507.622 3.83766 505.418 3.83766C503.693 3.83766 502.351 4.06528 501.393 4.52052C500.434 4.97576 499.955 5.80238 499.955 7.00038C499.955 7.69522 500.123 8.25828 500.458 8.68956C500.794 9.12084 501.369 9.49222 502.183 9.8037C503.022 10.1152 504.172 10.4626 505.634 10.846C507.527 11.3252 508.988 11.9002 510.018 12.5711C511.073 13.218 511.803 13.9847 512.211 14.8712C512.642 15.7338 512.858 16.7162 512.858 17.8183C512.858 19.8549 512.103 21.4602 510.593 22.6343C509.084 23.7844 506.796 24.3594 503.729 24.3594Z" fill="white"/>
</svg>
