<svg width="564" height="82" viewBox="0 0 564 82" fill="none" xmlns="http://www.w3.org/2000/svg">
<g clip-path="url(#clip0_2044_226)">
<path d="M7.90168 30.9998V8.62706H0V1.41448H25.7264V8.62706H17.7788V30.9998H7.90168ZM27.5443 30.9998V1.41448H37.4214V11.7509H46.1959V1.41448H56.073V30.9998H46.1959V20.6633H37.4214V30.9998H27.5443ZM59.7561 30.9998V1.41448H82.772V8.71894H69.6332V12.486H81.0723V19.9742H69.6332V23.6953H82.772V30.9998H59.7561ZM108.854 31.4592C106.098 31.4592 103.632 30.9998 101.458 30.081C99.2833 29.1622 97.5682 27.8146 96.3125 26.0383C95.0874 24.2619 94.4749 22.0721 94.4749 19.4689V1.41448H104.352V18.3204C104.352 21.5055 105.853 23.0981 108.854 23.0981C111.856 23.0981 113.356 21.5055 113.356 18.3204V1.41448H123.233V19.4689C123.233 22.0721 122.605 24.2619 121.35 26.0383C120.125 27.8146 118.425 29.1622 116.25 30.081C114.107 30.9998 111.641 31.4592 108.854 31.4592ZM126.692 30.9998V1.41448H136.569V10.7862L144.287 1.41448H155.451L145.206 13.6345L156.277 30.9998H145.803L139.142 19.8823L136.569 22.8684V30.9998H126.692ZM157.447 12.3022V1.41448H165.44L164.659 12.3022H157.447ZM178.16 31.4592C176.108 31.4592 174.148 31.2908 172.279 30.9539C170.442 30.617 168.88 30.1423 167.593 29.5297V21.8118C169.033 22.4856 170.61 23.0369 172.325 23.4656C174.071 23.8944 175.664 24.1088 177.103 24.1088C178.328 24.1088 179.262 23.9863 179.905 23.7413C180.579 23.4963 180.916 23.0369 180.916 22.3631C180.916 21.5974 180.411 21.0461 179.4 20.7092C178.389 20.3417 176.935 19.8364 175.036 19.1932C173.076 18.5194 171.529 17.7997 170.396 17.034C169.293 16.2377 168.497 15.2883 168.007 14.1858C167.517 13.0526 167.272 11.6744 167.272 10.0512C167.272 3.98712 171.483 0.955078 179.905 0.955078C180.947 0.955078 182.049 1.03165 183.213 1.18478C184.407 1.30729 185.541 1.47573 186.613 1.69012C187.715 1.87388 188.649 2.08827 189.415 2.33328V10.0971C187.853 9.48461 186.414 9.05583 185.097 8.81082C183.81 8.53518 182.631 8.39736 181.559 8.39736C180.487 8.39736 179.507 8.48924 178.619 8.673C177.761 8.82613 177.333 9.25491 177.333 9.95932C177.333 10.5412 177.716 10.9853 178.481 11.2915C179.247 11.5672 180.533 11.95 182.34 12.44C184.76 13.1138 186.582 13.9101 187.807 14.8289C189.063 15.7477 189.905 16.835 190.334 18.0907C190.793 19.3157 191.023 20.7246 191.023 22.3171C191.023 25.0735 189.951 27.294 187.807 28.9784C185.663 30.6323 182.447 31.4592 178.16 31.4592ZM203.184 30.9998V1.41448H213.061V23.4656H225.741V30.9998H203.184ZM227.59 30.9998V1.41448H250.606V8.71894H237.467V12.486H248.906V19.9742H237.467V23.6953H250.606V30.9998H227.59ZM252.198 30.9998L263.545 1.41448H273.882L285.275 30.9998H274.984L272.687 25.1195H264.74L262.489 30.9998H252.198ZM265.934 18.2285H271.493L268.69 11.0618L265.934 18.2285ZM288.02 30.9998V1.41448H301.665C304.758 1.41448 307.407 1.91982 309.612 2.9305C311.817 3.91055 313.517 5.50314 314.712 7.70826C315.906 9.88275 316.503 12.7769 316.503 16.3909C316.503 21.5055 315.202 25.2267 312.598 27.5543C309.995 29.8513 306.351 30.9998 301.665 30.9998H288.02ZM297.898 23.4656H300.47C301.726 23.4656 302.798 23.2819 303.686 22.9144C304.574 22.5468 305.248 21.8577 305.707 20.8471C306.197 19.8364 306.442 18.351 306.442 16.3909C306.442 14.4308 306.228 12.9454 305.799 11.9347C305.37 10.924 304.712 10.2349 303.824 9.86744C302.936 9.46929 301.818 9.27022 300.47 9.27022H297.898V23.4656ZM319.245 30.9998V1.41448H329.122V30.9998H319.245ZM332.794 30.9998V1.41448H341.109L350.848 15.0586V1.41448H360.726V30.9998H352.319L342.671 17.4016V30.9998H332.794ZM380.18 31.4592C374.759 31.4592 370.625 30.1729 367.776 27.6002C364.928 25.0276 363.504 21.2758 363.504 16.3449C363.504 11.3528 364.989 7.53981 367.96 4.90592C370.931 2.27203 375.234 0.955078 380.869 0.955078C382.768 0.955078 384.452 1.06227 385.923 1.27666C387.423 1.49105 388.863 1.82794 390.241 2.28734V10.6943C388.832 10.1737 387.408 9.8215 385.968 9.63774C384.529 9.42335 383.059 9.31616 381.558 9.31616C379.047 9.31616 377.087 9.85213 375.678 10.924C374.269 11.996 373.565 13.8029 373.565 16.3449C373.565 18.7951 374.116 20.5408 375.219 21.5821C376.352 22.5928 377.99 23.0981 380.134 23.0981C381.451 23.0981 382.615 22.945 383.626 22.6387V19.6067H378.251V13.5885H391.849V28.6569C390.654 29.4225 389.092 30.081 387.163 30.6323C385.233 31.1836 382.906 31.4592 380.18 31.4592ZM403.118 30.9998V26.5896C404.006 25.0582 405.017 23.68 406.15 22.455C407.314 21.1993 408.631 19.9129 410.101 18.596C411.295 17.5547 412.26 16.6818 412.995 15.9774C413.761 15.273 414.312 14.6298 414.649 14.0479C415.017 13.4354 415.2 12.7769 415.2 12.0725C415.2 10.2655 413.96 9.3621 411.479 9.3621C410.162 9.3621 408.861 9.51523 407.574 9.8215C406.319 10.1277 405.139 10.5259 404.037 11.0159V2.7008C405.323 2.18015 406.839 1.76669 408.585 1.46042C410.361 1.12353 412.184 0.955078 414.052 0.955078C417.85 0.955078 420.667 1.84325 422.505 3.6196C424.373 5.36532 425.307 7.67763 425.307 10.5565C425.307 11.8734 425.154 13.0219 424.848 14.002C424.541 14.9514 424.067 15.8396 423.424 16.6665C422.78 17.4628 421.923 18.3357 420.851 19.2851C420.085 19.9589 419.274 20.6633 418.416 21.3983C417.589 22.1334 416.961 22.8225 416.533 23.4656H425.537V30.9998H403.118ZM428.308 30.9998V1.41448H441.952C445.045 1.41448 447.695 1.91982 449.9 2.9305C452.105 3.91055 453.805 5.50314 454.999 7.70826C456.194 9.88275 456.791 12.7769 456.791 16.3909C456.791 21.5055 455.489 25.2267 452.886 27.5543C450.283 29.8513 446.638 30.9998 441.952 30.9998H428.308ZM438.185 23.4656H440.758C442.013 23.4656 443.085 23.2819 443.973 22.9144C444.862 22.5468 445.535 21.8577 445.995 20.8471C446.485 19.8364 446.73 18.351 446.73 16.3909C446.73 14.4308 446.515 12.9454 446.087 11.9347C445.658 10.924 444.999 10.2349 444.111 9.86744C443.223 9.46929 442.105 9.27022 440.758 9.27022H438.185V23.4656ZM492.062 31.9645L489.26 29.1163C488.218 29.8819 486.901 30.4638 485.309 30.862C483.716 31.2601 482.047 31.4592 480.301 31.4592C476.534 31.4592 473.548 30.6935 471.343 29.1622C469.138 27.6002 468.035 25.5176 468.035 22.9144C468.035 20.9236 468.525 19.2392 469.505 17.861C470.485 16.4828 471.879 15.2883 473.686 14.2776C472.859 13.4507 472.216 12.6085 471.756 11.7509C471.297 10.8934 471.067 9.86744 471.067 8.673C471.067 6.34537 471.94 4.47715 473.686 3.06832C475.432 1.65949 477.759 0.955078 480.669 0.955078C483.578 0.955078 485.937 1.65949 487.744 3.06832C489.55 4.44652 490.454 6.31475 490.454 8.673C490.454 10.0818 490.163 11.3069 489.581 12.3482C488.999 13.3895 488.126 14.4001 486.963 15.3802L490.684 19.1932C490.959 18.7644 491.097 18.1825 491.097 17.4475V16.7584H498.356V17.815C498.356 19.0401 498.141 20.2498 497.712 21.4443C497.314 22.6387 496.794 23.6341 496.151 24.4304L498.126 26.4517L492.062 31.9645ZM480.715 11.6591C481.327 11.2915 481.787 10.924 482.093 10.5565C482.43 10.189 482.598 9.71431 482.598 9.1324C482.598 8.61175 482.445 8.18297 482.139 7.84608C481.863 7.50919 481.419 7.34074 480.807 7.34074C480.133 7.34074 479.643 7.5245 479.336 7.89202C479.061 8.22891 478.923 8.64237 478.923 9.1324C478.923 9.68368 479.076 10.143 479.382 10.5106C479.689 10.8781 480.133 11.2609 480.715 11.6591ZM480.301 24.8438C481.557 24.8438 482.552 24.5223 483.287 23.8791L479.612 20.158C478.938 20.403 478.418 20.7246 478.05 21.1227C477.683 21.5208 477.499 22.0415 477.499 22.6847C477.499 23.3584 477.744 23.8944 478.234 24.2926C478.755 24.6601 479.444 24.8438 480.301 24.8438ZM519.371 31.4592C518.514 31.4592 517.442 31.3826 516.156 31.2295C514.9 31.107 513.644 30.9232 512.389 30.6782C511.133 30.4026 510.092 30.0963 509.265 29.7594V22.1334C510.612 22.7459 512.052 23.19 513.583 23.4656C515.145 23.7413 516.538 23.8791 517.764 23.8791C519.264 23.8791 520.382 23.7107 521.117 23.3738C521.852 23.0062 522.22 22.3478 522.22 21.3983C522.22 20.0201 521.102 19.331 518.866 19.331H513.675L514.272 12.9454H518.59C519.724 12.9454 520.52 12.7769 520.979 12.44C521.469 12.0725 521.714 11.5059 521.714 10.7403C521.714 10.0358 521.377 9.49992 520.704 9.1324C520.03 8.76488 518.958 8.58112 517.488 8.58112C516.079 8.58112 514.67 8.74957 513.261 9.08646C511.853 9.39273 510.658 9.80619 509.678 10.3268V2.7008C510.903 2.21077 512.389 1.79731 514.134 1.46042C515.88 1.12353 517.641 0.955078 519.417 0.955078C522.021 0.955078 524.241 1.33791 526.079 2.10358C527.916 2.86925 529.325 3.91055 530.305 5.2275C531.285 6.51382 531.775 7.99921 531.775 9.68368C531.775 12.5013 530.856 14.6605 529.019 16.1612C530.06 16.6512 530.872 17.4016 531.454 18.4122C532.036 19.3923 532.327 20.648 532.327 22.1793C532.327 24.3232 531.76 26.0842 530.627 27.4624C529.494 28.8406 527.947 29.8513 525.987 30.4945C524.057 31.1376 521.852 31.4592 519.371 31.4592ZM535.083 30.9998V1.41448H548.727C551.82 1.41448 554.469 1.91982 556.674 2.9305C558.879 3.91055 560.579 5.50314 561.774 7.70826C562.968 9.88275 563.565 12.7769 563.565 16.3909C563.565 21.5055 562.264 25.2267 559.66 27.5543C557.057 29.8513 553.413 30.9998 548.727 30.9998H535.083ZM544.96 23.4656H547.532C548.788 23.4656 549.86 23.2819 550.748 22.9144C551.636 22.5468 552.31 21.8577 552.769 20.8471C553.259 19.8364 553.504 18.351 553.504 16.3909C553.504 14.4308 553.29 12.9454 552.861 11.9347C552.433 10.924 551.774 10.2349 550.886 9.86744C549.998 9.46929 548.88 9.27022 547.532 9.27022H544.96V23.4656ZM18.0085 81.4592C12.4038 81.4592 8.14669 80.1576 5.23716 77.5543C2.35825 74.951 0.9188 71.1993 0.9188 66.299C0.9188 61.2762 2.34294 57.4632 5.19122 54.8599C8.0395 52.2567 12.2813 50.955 17.9166 50.955C19.8155 50.955 21.4846 51.0929 22.9241 51.3685C24.3635 51.6441 25.757 52.0423 27.1046 52.5629V61.1537C25.6958 60.5412 24.3023 60.0818 22.9241 59.7755C21.5765 59.4693 20.137 59.3161 18.6057 59.3161C16.1249 59.3161 14.2261 59.8521 12.9091 60.924C11.6228 61.9653 10.9797 63.757 10.9797 66.299C10.9797 68.7798 11.6534 70.5408 13.001 71.5821C14.3792 72.5928 16.2781 73.0981 18.6976 73.0981C20.1983 73.0981 21.6377 72.9603 23.0159 72.6847C24.3941 72.3784 25.7877 71.919 27.1965 71.3065V79.9432C25.8489 80.4332 24.4401 80.8007 22.97 81.0457C21.5305 81.3214 19.8767 81.4592 18.0085 81.4592ZM28.1508 80.9998L39.498 51.4144H49.8345L61.2276 80.9998H50.9371L48.6401 75.1195H40.6924L38.4414 80.9998H28.1508ZM41.8869 68.2285H47.4456L44.6433 61.0618L41.8869 68.2285ZM63.9732 80.9998V51.4144H77.6174C80.7107 51.4144 83.3599 51.9198 85.565 52.9305C87.7702 53.9105 89.4699 55.5031 90.6644 57.7082C91.8588 59.8827 92.456 62.7769 92.456 66.3909C92.456 71.5055 91.1544 75.2267 88.5511 77.5543C85.9479 79.8513 82.3033 80.9998 77.6174 80.9998H63.9732ZM73.8503 73.4656H76.423C77.6787 73.4656 78.7506 73.2819 79.6388 72.9144C80.527 72.5468 81.2007 71.8577 81.6601 70.8471C82.1502 69.8364 82.3952 68.351 82.3952 66.3909C82.3952 64.4308 82.1808 62.9454 81.752 61.9347C81.3232 60.924 80.6648 60.2349 79.7766 59.8674C78.8884 59.4693 77.7706 59.2702 76.423 59.2702H73.8503V73.4656ZM119.182 81.4592C115.875 81.4592 113.072 80.9539 110.775 79.9432C108.478 78.9325 106.717 77.3093 105.492 75.0735C104.298 72.8378 103.701 69.8976 103.701 66.2531C103.701 62.5472 104.298 59.5764 105.492 57.3407C106.717 55.105 108.478 53.4817 110.775 52.4711C113.072 51.4604 115.875 50.955 119.182 50.955C122.49 50.955 125.292 51.4604 127.589 52.4711C129.886 53.4817 131.632 55.105 132.827 57.3407C134.052 59.5764 134.664 62.5472 134.664 66.2531C134.664 69.8976 134.052 72.8378 132.827 75.0735C131.632 77.3093 129.886 78.9325 127.589 79.9432C125.292 80.9539 122.49 81.4592 119.182 81.4592ZM119.182 73.0981C121.081 73.0981 122.444 72.5622 123.271 71.4902C124.129 70.4183 124.557 68.6726 124.557 66.2531C124.557 63.711 124.129 61.9347 123.271 60.924C122.444 59.8827 121.081 59.3621 119.182 59.3621C117.253 59.3621 115.859 59.8827 115.002 60.924C114.175 61.9347 113.761 63.711 113.761 66.2531C113.761 68.6726 114.175 70.4183 115.002 71.4902C115.859 72.5622 117.253 73.0981 119.182 73.0981ZM151.564 81.4592C148.808 81.4592 146.342 80.9998 144.168 80.081C141.993 79.1622 140.278 77.8146 139.022 76.0383C137.797 74.2619 137.185 72.0721 137.185 69.4689V51.4144H147.062V68.3204C147.062 71.5055 148.563 73.0981 151.564 73.0981C154.565 73.0981 156.066 71.5055 156.066 68.3204V51.4144H165.943V69.4689C165.943 72.0721 165.315 74.2619 164.06 76.0383C162.835 77.8146 161.135 79.1622 158.96 80.081C156.816 80.9998 154.351 81.4592 151.564 81.4592ZM175.466 80.9998V58.627H167.564V51.4144H193.291V58.627H185.343V80.9998H175.466ZM205.078 81.4592C203.026 81.4592 201.065 81.2908 199.197 80.9539C197.36 80.617 195.798 80.1423 194.511 79.5297V71.8118C195.951 72.4856 197.528 73.0369 199.243 73.4656C200.989 73.8944 202.582 74.1088 204.021 74.1088C205.246 74.1088 206.18 73.9863 206.823 73.7413C207.497 73.4963 207.834 73.0369 207.834 72.3631C207.834 71.5974 207.329 71.0461 206.318 70.7092C205.307 70.3417 203.853 69.8364 201.954 69.1932C199.994 68.5194 198.447 67.7997 197.314 67.034C196.211 66.2377 195.415 65.2883 194.925 64.1858C194.435 63.0526 194.19 61.6744 194.19 60.0512C194.19 53.9871 198.401 50.955 206.823 50.955C207.865 50.955 208.967 51.0316 210.131 51.1847C211.325 51.3072 212.459 51.4757 213.531 51.6901C214.633 51.8738 215.567 52.0882 216.333 52.3332V60.0971C214.771 59.4846 213.331 59.0558 212.015 58.8108C210.728 58.5351 209.549 58.3973 208.477 58.3973C207.405 58.3973 206.425 58.4892 205.537 58.673C204.679 58.8261 204.251 59.2549 204.251 59.9593C204.251 60.5412 204.634 60.9853 205.399 61.2915C206.165 61.5672 207.451 61.95 209.258 62.44C211.678 63.1138 213.5 63.9101 214.725 64.8289C215.981 65.7477 216.823 66.835 217.252 68.0907C217.711 69.3157 217.941 70.7246 217.941 72.3171C217.941 75.0735 216.869 77.294 214.725 78.9784C212.581 80.6323 209.365 81.4592 205.078 81.4592ZM235.244 81.4592C231.936 81.4592 229.134 80.9539 226.837 79.9432C224.54 78.9325 222.779 77.3093 221.554 75.0735C220.359 72.8378 219.762 69.8976 219.762 66.2531C219.762 62.5472 220.359 59.5764 221.554 57.3407C222.779 55.105 224.54 53.4817 226.837 52.4711C229.134 51.4604 231.936 50.955 235.244 50.955C238.551 50.955 241.354 51.4604 243.651 52.4711C245.948 53.4817 247.693 55.105 248.888 57.3407C250.113 59.5764 250.725 62.5472 250.725 66.2531C250.725 69.8976 250.113 72.8378 248.888 75.0735C247.693 77.3093 245.948 78.9325 243.651 79.9432C241.354 80.9539 238.551 81.4592 235.244 81.4592ZM235.244 73.0981C237.143 73.0981 238.505 72.5622 239.332 71.4902C240.19 70.4183 240.619 68.6726 240.619 66.2531C240.619 63.711 240.19 61.9347 239.332 60.924C238.505 59.8827 237.143 59.3621 235.244 59.3621C233.314 59.3621 231.921 59.8827 231.063 60.924C230.236 61.9347 229.823 63.711 229.823 66.2531C229.823 68.6726 230.236 70.4183 231.063 71.4902C231.921 72.5622 233.314 73.0981 235.244 73.0981ZM267.625 81.4592C264.869 81.4592 262.403 80.9998 260.229 80.081C258.054 79.1622 256.339 77.8146 255.084 76.0383C253.859 74.2619 253.246 72.0721 253.246 69.4689V51.4144H263.123V68.3204C263.123 71.5055 264.624 73.0981 267.625 73.0981C270.627 73.0981 272.127 71.5055 272.127 68.3204V51.4144H282.004V69.4689C282.004 72.0721 281.377 74.2619 280.121 76.0383C278.896 77.8146 277.196 79.1622 275.022 80.081C272.878 80.9998 270.412 81.4592 267.625 81.4592ZM285.463 80.9998V51.4144H301.45C303.931 51.4144 305.968 51.8892 307.56 52.8386C309.184 53.7574 310.378 55.0284 311.144 56.6516C311.94 58.2748 312.338 60.1277 312.338 62.2103C312.338 64.2011 311.833 65.9621 310.822 67.4934C309.811 68.9941 308.54 70.1886 307.009 71.0768C307.591 71.5362 308.081 72.2099 308.479 73.0981L311.925 80.9998H301.634L298.602 74.1547C298.388 73.6953 298.158 73.3738 297.913 73.19C297.668 73.0062 297.285 72.9144 296.765 72.9144H295.34V80.9998H285.463ZM295.34 65.2883H298.97C301.175 65.2883 302.277 64.2623 302.277 62.2103C302.277 60.1277 301.251 59.0864 299.199 59.0864H295.34V65.2883ZM330.571 81.4592C324.966 81.4592 320.709 80.1576 317.8 77.5543C314.921 74.951 313.481 71.1993 313.481 66.299C313.481 61.2762 314.905 57.4632 317.754 54.8599C320.602 52.2567 324.844 50.955 330.479 50.955C332.378 50.955 334.047 51.0929 335.487 51.3685C336.926 51.6441 338.319 52.0423 339.667 52.5629V61.1537C338.258 60.5412 336.865 60.0818 335.487 59.7755C334.139 59.4693 332.7 59.3161 331.168 59.3161C328.687 59.3161 326.789 59.8521 325.472 60.924C324.185 61.9653 323.542 63.757 323.542 66.299C323.542 68.7798 324.216 70.5408 325.563 71.5821C326.942 72.5928 328.841 73.0981 331.26 73.0981C332.761 73.0981 334.2 72.9603 335.578 72.6847C336.957 72.3784 338.35 71.919 339.759 71.3065V79.9432C338.411 80.4332 337.003 80.8007 335.532 81.0457C334.093 81.3214 332.439 81.4592 330.571 81.4592ZM342.529 80.9998V51.4144H365.545V58.7189H352.406V62.486H363.846V69.9742H352.406V73.6953H365.545V80.9998H342.529ZM387.447 81.4592C385.395 81.4592 383.435 81.2908 381.567 80.9539C379.729 80.617 378.167 80.1423 376.881 79.5297V71.8118C378.32 72.4856 379.897 73.0369 381.612 73.4656C383.358 73.8944 384.951 74.1088 386.39 74.1088C387.615 74.1088 388.549 73.9863 389.193 73.7413C389.866 73.4963 390.203 73.0369 390.203 72.3631C390.203 71.5974 389.698 71.0461 388.687 70.7092C387.677 70.3417 386.222 69.8364 384.323 69.1932C382.363 68.5194 380.816 67.7997 379.683 67.034C378.58 66.2377 377.784 65.2883 377.294 64.1858C376.804 63.0526 376.559 61.6744 376.559 60.0512C376.559 53.9871 380.77 50.955 389.193 50.955C390.234 50.955 391.336 51.0316 392.5 51.1847C393.695 51.3072 394.828 51.4757 395.9 51.6901C397.002 51.8738 397.936 52.0882 398.702 52.3332V60.0971C397.14 59.4846 395.701 59.0558 394.384 58.8108C393.097 58.5351 391.918 58.3973 390.846 58.3973C389.774 58.3973 388.794 58.4892 387.906 58.673C387.049 58.8261 386.62 59.2549 386.62 59.9593C386.62 60.5412 387.003 60.9853 387.768 61.2915C388.534 61.5672 389.82 61.95 391.627 62.44C394.047 63.1138 395.869 63.9101 397.094 64.8289C398.35 65.7477 399.192 66.835 399.621 68.0907C400.08 69.3157 400.31 70.7246 400.31 72.3171C400.31 75.0735 399.238 77.294 397.094 78.9784C394.95 80.6323 391.735 81.4592 387.447 81.4592ZM403.05 80.9998V51.4144H426.066V58.7189H412.927V62.486H424.366V69.9742H412.927V73.6953H426.066V80.9998H403.05ZM428.577 80.9998V51.4144H444.564C447.045 51.4144 449.082 51.8892 450.674 52.8386C452.297 53.7574 453.492 55.0284 454.258 56.6516C455.054 58.2748 455.452 60.1277 455.452 62.2103C455.452 64.2011 454.947 65.9621 453.936 67.4934C452.925 68.9941 451.654 70.1886 450.123 71.0768C450.705 71.5362 451.195 72.2099 451.593 73.0981L455.039 80.9998H444.748L441.716 74.1547C441.502 73.6953 441.272 73.3738 441.027 73.19C440.782 73.0062 440.399 72.9144 439.878 72.9144H438.454V80.9998H428.577ZM438.454 65.2883H442.083C444.289 65.2883 445.391 64.2623 445.391 62.2103C445.391 60.1277 444.365 59.0864 442.313 59.0864H438.454V65.2883ZM465.609 80.9998L454.262 51.4144H464.553L470.755 69.4229L477.003 51.4144H487.339L475.946 80.9998H465.609ZM490.085 80.9998V51.4144H499.962V80.9998H490.085ZM519.804 81.4592C514.2 81.4592 509.942 80.1576 507.033 77.5543C504.154 74.951 502.715 71.1993 502.715 66.299C502.715 61.2762 504.139 57.4632 506.987 54.8599C509.835 52.2567 514.077 50.955 519.712 50.955C521.611 50.955 523.28 51.0929 524.72 51.3685C526.159 51.6441 527.553 52.0423 528.9 52.5629V61.1537C527.492 60.5412 526.098 60.0818 524.72 59.7755C523.372 59.4693 521.933 59.3161 520.401 59.3161C517.921 59.3161 516.022 59.8521 514.705 60.924C513.419 61.9653 512.775 63.757 512.775 66.299C512.775 68.7798 513.449 70.5408 514.797 71.5821C516.175 72.5928 518.074 73.0981 520.493 73.0981C521.994 73.0981 523.434 72.9603 524.812 72.6847C526.19 72.3784 527.583 71.919 528.992 71.3065V79.9432C527.645 80.4332 526.236 80.8007 524.766 81.0457C523.326 81.3214 521.672 81.4592 519.804 81.4592ZM531.763 80.9998V51.4144H554.779V58.7189H541.64V62.486H553.079V69.9742H541.64V73.6953H554.779V80.9998H531.763Z" fill="white"/>
</g>
<defs>
<clipPath id="clip0_2044_226">
<rect width="564" height="82" fill="white"/>
</clipPath>
</defs>
</svg>
