<svg width="29" height="42" viewBox="0 0 29 42" fill="none" xmlns="http://www.w3.org/2000/svg">
<g clip-path="url(#clip0_1566_7)">
<path d="M7.99585 31.1126C9.19816 32.6607 10.2925 34.2913 11.2709 35.9927C12.1063 37.5928 12.4545 38.6778 13.065 40.6058C13.4394 41.671 13.7777 41.9889 14.5052 41.9889C15.298 41.9889 15.6576 41.4481 15.9355 40.6116C16.5126 38.7909 16.9653 37.4013 17.6797 36.0883C19.0814 33.5534 20.8232 31.3009 22.5347 29.136C22.998 28.5233 25.9936 24.9537 27.3422 22.1372C27.3422 22.1372 28.9998 19.0433 28.9998 14.7223C28.9998 10.6805 27.3651 7.87726 27.3651 7.87726L22.6589 9.15053L19.8008 16.7553L19.0937 17.8039L18.9523 17.9939L18.7643 18.2317L18.4341 18.6115L17.9624 19.0879L15.4174 21.1827L9.05435 24.8942L7.99585 31.1126Z" fill="#34A853"/>
<path d="M1.42871 21.617C2.98168 25.2005 5.97639 28.3507 8.00253 31.1151L18.7644 18.2366C18.7644 18.2366 17.2482 20.2397 14.498 20.2397C11.4345 20.2397 8.95965 17.7684 8.95965 14.6521C8.95965 12.5152 10.2322 11.0471 10.2322 11.0471L2.92686 13.0247L1.42871 21.617Z" fill="#FBBC04"/>
<path d="M18.8846 0.662292C22.4588 1.82651 25.5181 4.27063 27.3685 7.87473L18.7677 18.2292C18.7677 18.2292 20.0403 16.7346 20.0403 14.6109C20.0403 11.4221 17.3823 9.03986 14.511 9.03986C11.7958 9.03986 10.2363 11.0397 10.2363 11.0397V4.51657L18.8846 0.662292Z" fill="#4285F4"/>
<path d="M3.40015 5.23741C5.53493 2.6571 9.29134 0 14.4701 0C16.9827 0 18.8756 0.666392 18.8756 0.666392L10.2282 11.0454H4.10136L3.40015 5.23741Z" fill="#1A73E8"/>
<path d="M1.4287 21.6171C1.4287 21.6171 0 18.7906 0 14.6959C0 10.8258 1.4892 7.44294 3.40014 5.23743L10.233 11.0464L1.4287 21.6171Z" fill="#EA4335"/>
</g>
<defs>
<clipPath id="clip0_1566_7">
<rect width="29" height="42" fill="white"/>
</clipPath>
</defs>
</svg>
