<svg width="19" height="19" viewBox="0 0 19 19" fill="none" xmlns="http://www.w3.org/2000/svg">
<path d="M15.8906 14.0002H14.3351V7.19466L9.6684 10.1113L5.00174 7.19466V14.0002H3.44618V4.66688H4.37951L9.6684 7.97244L14.9573 4.66688H15.8906M15.8906 3.11133H3.44618C2.58285 3.11133 1.89062 3.80355 1.89062 4.66688V14.0002C1.89063 14.4128 2.05451 14.8084 2.34624 15.1002C2.63796 15.3919 3.03362 15.5558 3.44618 15.5558H15.8906C16.3032 15.5558 16.6988 15.3919 16.9906 15.1002C17.2823 14.8084 17.4462 14.4128 17.4462 14.0002V4.66688C17.4462 4.25432 17.2823 3.85866 16.9906 3.56694C16.6988 3.27522 16.3032 3.11133 15.8906 3.11133Z" fill="white"/>
</svg>
