<svg width="108" height="108" viewBox="0 0 108 108" fill="none" xmlns="http://www.w3.org/2000/svg">
<path d="M97.875 2.53127H10.125C8.13401 2.51101 6.2163 3.2814 4.79266 4.67341C3.36902 6.06542 2.55573 7.96533 2.53125 9.95627V98.0607C2.56016 100.049 3.37539 101.944 4.79855 103.333C6.22171 104.721 8.1369 105.489 10.125 105.469H97.875C99.8661 105.485 101.783 104.712 103.205 103.319C104.628 101.926 105.442 100.026 105.469 98.0353V9.93096C105.433 7.94586 104.616 6.055 103.194 4.66938C101.772 3.28377 99.8604 2.51539 97.875 2.53127Z" fill="#0076B2"/>
<path d="M17.7694 41.116H33.0498V90.2813H17.7694V41.116ZM25.4138 16.6472C27.1664 16.6472 28.8796 17.167 30.3367 18.1409C31.7938 19.1147 32.9293 20.4989 33.5996 22.1182C34.2699 23.7375 34.4449 25.5193 34.1023 27.2381C33.7598 28.9569 32.9152 30.5354 31.6754 31.7741C30.4355 33.0128 28.8561 33.8559 27.137 34.1968C25.4179 34.5377 23.6363 34.361 22.0176 33.6892C20.3989 33.0173 19.0159 31.8805 18.0434 30.4225C17.071 28.9644 16.5528 27.2507 16.5544 25.4982C16.5567 23.15 17.4911 20.8987 19.1523 19.2391C20.8135 17.5795 23.0656 16.6472 25.4138 16.6472ZM42.6348 41.116H57.2823V47.866H57.4848C59.5266 44.0016 64.5048 39.9263 71.9382 39.9263C87.4126 39.8925 90.2813 50.0766 90.2813 63.2813V90.2813H75.001V66.361C75.001 60.6657 74.8998 53.3335 67.0613 53.3335C59.2229 53.3335 57.8898 59.5435 57.8898 65.9897V90.2813H42.6348V41.116Z" fill="white"/>
</svg>
