<svg width="108" height="108" viewBox="0 0 108 108" fill="none" xmlns="http://www.w3.org/2000/svg">
<g clip-path="url(#clip0_1569_19)">
<path d="M105.615 27.8539C104.995 25.5627 103.787 23.4739 102.11 21.7955C100.433 20.1171 98.3461 18.9077 96.0568 18.2876C87.6758 16 53.9452 16 53.9452 16C53.9452 16 20.213 16.0692 11.832 18.3568C9.54268 18.977 7.45564 20.1865 5.77869 21.865C4.10174 23.5434 2.89339 25.6323 2.27399 27.9236C-0.26106 42.8272 -1.24445 65.5368 2.3436 79.8442C2.96307 82.1354 4.17144 84.2242 5.84839 85.9026C7.52533 87.581 9.61234 88.7904 11.9016 89.4105C20.2826 91.6981 54.014 91.6981 54.014 91.6981C54.014 91.6981 87.745 91.6981 96.1256 89.4105C98.4149 88.7905 100.502 87.5811 102.179 85.9027C103.856 84.2243 105.064 82.1354 105.684 79.8442C108.358 64.9195 109.182 42.2238 105.615 27.8539Z" fill="#FF0000"/>
<path d="M43.2087 70.0698L71.1909 53.8489L43.2087 37.6279V70.0698Z" fill="white"/>
</g>
<defs>
<clipPath id="clip0_1569_19">
<rect width="108" height="76" fill="white" transform="translate(0 16)"/>
</clipPath>
</defs>
</svg>
