<svg width="25" height="25" viewBox="0 0 25 25" fill="none" xmlns="http://www.w3.org/2000/svg">
<path fill-rule="evenodd" clip-rule="evenodd" d="M12.7617 22.6836C7.23872 22.6836 2.76172 18.2066 2.76172 12.6836C2.76172 7.16059 7.23872 2.68359 12.7617 2.68359C18.2847 2.68359 22.7617 7.16059 22.7617 12.6836C22.7617 18.2066 18.2847 22.6836 12.7617 22.6836ZM12.7617 21.4836C15.0956 21.4836 17.3339 20.5565 18.9843 18.9061C20.6346 17.2558 21.5617 15.0175 21.5617 12.6836C21.5617 10.3497 20.6346 8.11137 18.9843 6.46105C17.3339 4.81073 15.0956 3.88359 12.7617 3.88359C10.4278 3.88359 8.1895 4.81073 6.53918 6.46105C4.88886 8.11137 3.96172 10.3497 3.96172 12.6836C3.96172 15.0175 4.88886 17.2558 6.53918 18.9061C8.1895 20.5565 10.4278 21.4836 12.7617 21.4836ZM12.1617 10.6836H13.3617V17.6836H12.1617V10.6836ZM12.7617 9.68359C12.4965 9.68359 12.2421 9.57824 12.0546 9.3907C11.8671 9.20316 11.7617 8.94881 11.7617 8.68359C11.7617 8.41838 11.8671 8.16402 12.0546 7.97649C12.2421 7.78895 12.4965 7.68359 12.7617 7.68359C13.0269 7.68359 13.2813 7.78895 13.4688 7.97649C13.6564 8.16402 13.7617 8.41838 13.7617 8.68359C13.7617 8.94881 13.6564 9.20316 13.4688 9.3907C13.2813 9.57824 13.0269 9.68359 12.7617 9.68359Z" fill="#30363E"/>
</svg>
