<svg width="15" height="15" viewBox="0 0 15 15" fill="none" xmlns="http://www.w3.org/2000/svg">
<path d="M5.46875 6.25C5.46875 5.71128 5.68276 5.19462 6.06369 4.81369C6.44462 4.43276 6.96128 4.21875 7.5 4.21875C8.03872 4.21875 8.55538 4.43276 8.93631 4.81369C9.31724 5.19462 9.53125 5.71128 9.53125 6.25C9.53125 6.78872 9.31724 7.30538 8.93631 7.68631C8.55538 8.06724 8.03872 8.28125 7.5 8.28125C6.96128 8.28125 6.44462 8.06724 6.06369 7.68631C5.68276 7.30538 5.46875 6.78872 5.46875 6.25Z" fill="white"/>
<path fill-rule="evenodd" clip-rule="evenodd" d="M2.35809 5.54812C2.46205 4.29172 3.03448 3.12029 3.96182 2.26624C4.88916 1.41219 6.10365 0.93791 7.36434 0.9375H7.63434C8.89504 0.93791 10.1095 1.41219 11.0369 2.26624C11.9642 3.12029 12.5366 4.29172 12.6406 5.54812C12.756 6.95088 12.3229 8.34372 11.4325 9.43375L8.43684 13.0975C8.3233 13.2365 8.18029 13.3485 8.01815 13.4254C7.85601 13.5023 7.6788 13.5422 7.49934 13.5422C7.31989 13.5422 7.14268 13.5023 6.98054 13.4254C6.8184 13.3485 6.67539 13.2365 6.56184 13.0975L3.56684 9.43375C2.6762 8.34381 2.2429 6.95096 2.35809 5.54812ZM7.49934 3.28125C6.71198 3.28125 5.95687 3.59403 5.40012 4.15078C4.84337 4.70753 4.53059 5.46264 4.53059 6.25C4.53059 7.03736 4.84337 7.79247 5.40012 8.34922C5.95687 8.90597 6.71198 9.21875 7.49934 9.21875C8.28671 9.21875 9.04182 8.90597 9.59857 8.34922C10.1553 7.79247 10.4681 7.03736 10.4681 6.25C10.4681 5.46264 10.1553 4.70753 9.59857 4.15078C9.04182 3.59403 8.28671 3.28125 7.49934 3.28125Z" fill="white"/>
</svg>
