<svg width="18" height="18" viewBox="0 0 18 18" fill="none" xmlns="http://www.w3.org/2000/svg">
<g clip-path="url(#clip0_659_251)">
<path d="M18 13.5C18 14.0304 17.7893 14.5391 17.4142 14.9142C17.0391 15.2893 16.5304 15.5 16 15.5H2C1.46957 15.5 0.960859 15.2893 0.585786 14.9142C0.210714 14.5391 0 14.0304 0 13.5V4.5C0 3.96957 0.210714 3.46086 0.585786 3.08579C0.960859 2.71071 1.46957 2.5 2 2.5H16C16.5304 2.5 17.0391 2.71071 17.4142 3.08579C17.7893 3.46086 18 3.96957 18 4.5V13.5Z" fill="#CCD6DD"/>
<path d="M5.97556 8.81848L0.319063 14.475C0.305563 14.489 0.300563 14.5065 0.289062 14.5205C0.459063 14.8055 0.696062 15.042 0.981062 15.2125C0.995562 15.201 1.01256 15.196 1.02606 15.1825L6.68306 9.52548C6.77682 9.43166 6.82946 9.30443 6.82941 9.1718C6.82937 9.03916 6.77663 8.91198 6.68281 8.81823C6.58899 8.72447 6.46177 8.67183 6.32914 8.67188C6.1965 8.67192 6.06932 8.72466 5.97556 8.81848ZM17.7121 14.5205C17.7016 14.5065 17.6956 14.489 17.6821 14.4755L12.0261 8.81848C11.9796 8.77202 11.9245 8.73516 11.8639 8.71001C11.8032 8.68486 11.7382 8.6719 11.6725 8.67188C11.6068 8.67185 11.5418 8.68476 11.4811 8.70988C11.4204 8.73499 11.3653 8.7718 11.3188 8.81823C11.2724 8.86465 11.2355 8.91977 11.2103 8.98043C11.1852 9.0411 11.1722 9.10612 11.1722 9.1718C11.1722 9.23747 11.1851 9.30251 11.2102 9.36319C11.2353 9.42388 11.2721 9.47902 11.3186 9.52548L16.9751 15.1825C16.9881 15.1955 17.0061 15.201 17.0201 15.2125C17.3045 15.0427 17.5423 14.8049 17.7121 14.5205Z" fill="#99AAB5"/>
<path d="M16 2.5H2C1.46957 2.5 0.960859 2.71071 0.585786 3.08579C0.210714 3.46086 0 3.96957 0 4.5L0 5.015L7.264 12.263C7.72123 12.7179 8.34 12.9733 8.985 12.9733C9.63 12.9733 10.2488 12.7179 10.706 12.263L18 5.0045V4.5C18 3.96957 17.7893 3.46086 17.4142 3.08579C17.0391 2.71071 16.5304 2.5 16 2.5Z" fill="#99AAB5"/>
<path d="M16.0006 2.5H2.00063C1.62422 2.50072 1.25569 2.60791 0.937622 2.80919C0.619551 3.01048 0.364914 3.29764 0.203125 3.6375L7.58612 11.021C7.77184 11.2067 7.99233 11.3541 8.23498 11.4546C8.47764 11.5551 8.73772 11.6068 9.00037 11.6068C9.26303 11.6068 9.52311 11.5551 9.76577 11.4546C10.0084 11.3541 10.2289 11.2067 10.4146 11.021L17.7981 3.6375C17.6363 3.29764 17.3817 3.01048 17.0636 2.80919C16.7456 2.60791 16.377 2.50072 16.0006 2.5Z" fill="#E1E8ED"/>
</g>
<defs>
<clipPath id="clip0_659_251">
<rect width="18" height="18" fill="white"/>
</clipPath>
</defs>
</svg>
