<svg width="25" height="24" viewBox="0 0 25 24" fill="none" xmlns="http://www.w3.org/2000/svg">
<path fill-rule="evenodd" clip-rule="evenodd" d="M21.2924 11.4702C21.4328 11.6108 21.5117 11.8014 21.5117 12.0002C21.5117 12.1989 21.4328 12.3895 21.2924 12.5302L15.2924 18.5302C15.2237 18.6038 15.1409 18.6629 15.0489 18.7039C14.9569 18.7449 14.8576 18.767 14.7569 18.7687C14.6562 18.7705 14.5562 18.752 14.4628 18.7143C14.3694 18.6766 14.2846 18.6204 14.2133 18.5492C14.1421 18.478 14.086 18.3931 14.0483 18.2998C14.0105 18.2064 13.992 18.1063 13.9938 18.0056C13.9956 17.9049 14.0176 17.8056 14.0586 17.7136C14.0996 17.6216 14.1587 17.5388 14.2324 17.4702L18.9524 12.7502L4.76238 12.7502C4.56347 12.7502 4.3727 12.6711 4.23205 12.5305C4.0914 12.3898 4.01238 12.1991 4.01238 12.0002C4.01238 11.8012 4.0914 11.6105 4.23205 11.4698C4.3727 11.3292 4.56347 11.2502 4.76238 11.2502L18.9524 11.2502L14.2324 6.53015C14.1587 6.46149 14.0996 6.37869 14.0586 6.28669C14.0176 6.19469 13.9956 6.09538 13.9938 5.99468C13.992 5.89397 14.0105 5.79394 14.0483 5.70056C14.086 5.60717 14.1421 5.52233 14.2133 5.45111C14.2846 5.3799 14.3694 5.32375 14.4628 5.28603C14.5562 5.24831 14.6562 5.22978 14.7569 5.23156C14.8576 5.23334 14.9569 5.25538 15.0489 5.29637C15.1409 5.33736 15.2237 5.39647 15.2924 5.47015L21.2924 11.4702Z" fill="white"/>
</svg>
