<svg width="54" height="54" viewBox="0 0 54 54" fill="none" xmlns="http://www.w3.org/2000/svg">
<rect width="54" height="54" rx="27" fill="black" fill-opacity="0.75"/>
<path d="M25.9436 13C28.2439 12.9998 30.4995 13.6361 32.4607 14.8383C34.4219 16.0406 36.0122 17.762 37.0558 19.812C38.0993 21.862 38.5554 24.1608 38.3735 26.454C38.1916 28.7471 37.3788 30.9453 36.0251 32.8051L35.7361 33.1865L41.093 38.5434C41.3589 38.8067 41.514 39.1618 41.5267 39.5358C41.5394 39.9098 41.4087 40.2745 41.1613 40.5553C40.9138 40.836 40.5685 41.0116 40.1958 41.0461C39.8232 41.0806 39.4515 40.9713 39.1568 40.7407L39.0189 40.6175L33.662 35.2606C32.1005 36.4912 30.2673 37.3306 28.3155 37.7086C26.3636 38.0867 24.3496 37.9925 22.4415 37.4339C20.5335 36.8753 18.7866 35.8685 17.3468 34.4975C15.907 33.1265 14.8159 31.431 14.1646 29.5526C13.5133 27.6741 13.3206 25.6672 13.6027 23.6991C13.8848 21.7311 14.6334 19.859 15.7861 18.2392C16.9388 16.6193 18.4622 15.2986 20.2292 14.3872C21.9961 13.4758 23.9554 13.0002 25.9436 13ZM25.9436 15.9337C23.4149 15.9337 20.9898 16.9382 19.2017 18.7262C17.4137 20.5143 16.4092 22.9394 16.4092 25.4681C16.4092 27.9967 17.4137 30.4219 19.2017 32.2099C20.9898 33.9979 23.4149 35.0025 25.9436 35.0025C28.4722 35.0025 30.8974 33.9979 32.6854 32.2099C34.4735 30.4219 35.478 27.9967 35.478 25.4681C35.478 22.9394 34.4735 20.5143 32.6854 18.7262C30.8974 16.9382 28.4722 15.9337 25.9436 15.9337ZM25.9436 18.8673C26.3028 18.8674 26.6496 18.9993 26.9181 19.238C27.1866 19.4768 27.3581 19.8057 27.4001 20.1625L27.4104 20.3342V24.0012H31.0775C31.4513 24.0016 31.8109 24.1448 32.0828 24.4015C32.3546 24.6581 32.5182 25.0089 32.5402 25.3821C32.5621 25.7553 32.4406 26.1228 32.2007 26.4095C31.9607 26.6962 31.6203 26.8805 31.2491 26.9246L31.0775 26.9349H27.4104V30.602C27.41 30.9758 27.2668 31.3354 27.0102 31.6073C26.7535 31.8791 26.4028 32.0427 26.0295 32.0647C25.6563 32.0866 25.2888 31.9651 25.0021 31.7252C24.7154 31.4852 24.5312 31.1448 24.487 30.7736L24.4767 30.602V26.9349H20.8097C20.4358 26.9345 20.0762 26.7913 19.8043 26.5347C19.5325 26.278 19.3689 25.9272 19.347 25.554C19.3251 25.1808 19.4465 24.8133 19.6865 24.5266C19.9264 24.2399 20.2668 24.0557 20.638 24.0115L20.8097 24.0012H24.4767V20.3342C24.4767 19.9451 24.6313 19.572 24.9064 19.2969C25.1814 19.0219 25.5545 18.8673 25.9436 18.8673Z" fill="white"/>
</svg>
